:SAMPLES-PER-SECOND 24
:FULLY-SPECIFIED
:DEGREES
542
root  -1.5434 39.2898 13.2194 139.859 51.4156 146.494
RightUpLeg  -7.59525 12.871 -8.92417
RightLeg  28.4962 15.633 8.80046
RightFoot  2.25829 1.37031 -11.3104
RightToes  -1.74623e-010 0 -2.59999e-017
Spine  9.7986 -0.310055 11.5292
Spine1  10.9539 3.60571 -10.7865
HEad  -6.59893 39.8528 -22.4202
LeftShoulder1  2.51552 -3.87737 -28.0106
LeftArm  14.2547 0.0781354 -32.0643
LeftForeArm  148.874 -69.6489 -151.057
LeftHand  -0.166645 4.69626 27.6649
RightShoulder  3.06482 5.70103 27.3158
RightArm  17.6606 18.6175 46.0584
RightForeArm  107.223 79.7632 103.938
RightHand  -0.037295 -7.39753 -0.206346
LeftUpLeg  -46.8509 22.0618 -5.58645
LeftLeg  97.2264 2.41396 -16.182
LeftFoot  2.06304 2.30859 -19.5461
LeftToes  -6.27559e-011 -2.10356e-011 8.24929e-012
543
root  -1.98865 39.7985 11.725 122.263 53.5608 126.113
RightUpLeg  -10.2543 15.2894 -18.8754
RightLeg  30.3215 16.8888 10.1994
RightFoot  1.44567 1.31489 -11.5988
RightToes  -1.74623e-010 0 -2.59999e-017
Spine  12.9655 0.39576 12.6991
Spine1  10.0798 6.1362 -16.6783
HEad  -7.74756 42.4134 -27.5327
LeftShoulder1  2.55443 -3.93372 -28.2826
LeftArm  15.0468 1.47767 -32.6911
LeftForeArm  148.993 -69.3756 -151.468
LeftHand  -0.249762 4.3872 28.7304
RightShoulder  2.90606 5.67993 25.5926
RightArm  20.489 23.9172 48.8233
RightForeArm  105.549 79.8612 101.928
RightHand  -0.0256479 -5.71055 -1.48108
LeftUpLeg  -59.0002 29.3868 -12.1471
LeftLeg  102.512 4.57662 -18.2995
LeftFoot  1.67391 2.61038 -22.6181
LeftToes  -6.27559e-011 -2.10356e-011 8.24929e-012
544
root  -2.23814 40.1531 10.1199 106.731 51.1613 106.36
RightUpLeg  -15.6981 7.55917 -28.0147
RightLeg  31.6428 12.6225 8.01627
RightFoot  0.445737 1.38936 -13.3614
RightToes  -1.74623e-010 0 -2.59999e-017
Spine  14.6651 1.00972 13.5613
Spine1  8.09376 7.88323 -21.5411
HEad  -9.21842 44.837 -32.7507
LeftShoulder1  2.56228 -3.98955 -28.1277
LeftArm  15.8446 2.40968 -33.2003
LeftForeArm  149.949 -68.7223 -152.498
LeftHand  -0.294825 4.2625 30.1697
RightShoulder  2.59822 5.35347 23.1596
RightArm  22.0787 26.5696 49.8912
RightForeArm  111.095 79.6572 107.036
RightHand  -0.0407476 -3.8902 -1.64475
LeftUpLeg  -70.7696 37.2777 -20.4939
LeftLeg  109.362 8.91224 -22.2353
LeftFoot  -0.458295 2.6505 -27.4765
LeftToes  -6.27559e-011 -2.10356e-011 8.24929e-012
545
root  -2.13204 40.4499 8.41277 97.1583 46.3016 91.1921
RightUpLeg  -22.2941 -9.22407 -32.0625
RightLeg  29.9846 4.9388 2.82942
RightFoot  -1.28397 1.20192 -13.6751
RightToes  -1.74623e-010 0 -2.59999e-017
Spine  13.3789 1.82979 14.6761
Spine1  6.41404 8.57379 -24.3924
HEad  -11.3839 47.7649 -37.1453
LeftShoulder1  2.5737 -4.03484 -28.0726
LeftArm  16.3636 2.77968 -32.7555
LeftForeArm  151.102 -67.92 -153.681
LeftHand  -0.333234 4.16471 31.3949
RightShoulder  2.34772 5.00619 21.3052
RightArm  21.0778 27.4762 47.0984
RightForeArm  121.943 78.3465 120.868
RightHand  -0.0463357 -3.10514 -1.54343
LeftUpLeg  -82.8868 45.4352 -28.9517
LeftLeg  115.025 16.0995 -28.9865
LeftFoot  -0.896799 3.33155 -35.3196
LeftToes  -6.27559e-011 -2.10356e-011 8.24929e-012
546
root  -1.92281 40.59 6.93032 93.7366 39.2317 81.6997
RightUpLeg  -30.2406 -29.3099 -31.2479
RightLeg  24.4801 -0.0395155 0.546777
RightFoot  -2.95715 1.0823 -14.9095
RightToes  -1.74623e-010 0 -2.59999e-017
Spine  10.0894 2.1436 13.0486
Spine1  5.52565 8.06917 -25.3103
HEad  -14.2257 50.9021 -40.0609
LeftShoulder1  2.5652 -4.06496 -27.8177
LeftArm  16.5564 3.14045 -31.2093
LeftForeArm  150.357 -66.5372 -155.217
LeftHand  -0.277738 4.4151 33.0672
RightShoulder  2.15482 4.70983 19.8525
RightArm  17.5164 26.6069 41.4559
RightForeArm  133.027 75.5836 135.533
RightHand  -0.0693556 -2.98785 -2.62474
LeftUpLeg  -87.435 52.9154 -31.4351
LeftLeg  118.275 18.7565 -29.2982
LeftFoot  2.10767 4.95082 -40.5806
LeftToes  -6.27559e-011 -2.10356e-011 8.24929e-012
